<svg width="48" height="35" viewBox="0 0 48 35" fill="none" xmlns="http://www.w3.org/2000/svg">
<path d="M2 0C0.895431 0 0 0.895431 0 2V33C0 34.1046 0.895431 35 2 35H46C47.1046 35 48 34.1046 48 33V2C48 0.89543 47.1046 0 46 0H2ZM35.5548 3.88889C37.3969 3.88889 38.2594 6.16833 36.8788 7.38785L25.3241 17.5943C24.5678 18.2624 23.4322 18.2624 22.6759 17.5943L11.1212 7.38785C9.74056 6.16833 10.6031 3.88889 12.4452 3.88889H35.5548ZM4 10.7735C4 9.05087 6.03273 8.13412 7.32393 9.27446L10.5978 12.1659C11.3272 12.81 11.4871 13.8857 10.9766 14.7141L7.70269 20.0272C6.64508 21.7436 4 20.994 4 18.978V10.7735ZM9.12287 31.1111C7.55743 31.1111 6.59887 29.3939 7.4205 28.0614L13.634 17.9846C14.285 16.9289 15.73 16.7141 16.6599 17.5349L22.6765 22.8457C23.4326 23.5131 24.5674 23.5131 25.3235 22.8457L31.3401 17.5349C32.27 16.7141 33.715 16.9289 34.366 17.9847L40.5795 28.0614C41.4011 29.3939 40.4426 31.1111 38.8771 31.1111H9.12287ZM44 18.978C44 20.994 41.3549 21.7436 40.2973 20.0272L37.0234 14.7141C36.5129 13.8857 36.6728 12.81 37.4021 12.1659L40.6761 9.27446C41.9673 8.13412 44 9.05087 44 10.7735V18.978Z" fill="white"/>
</svg>
