<svg width="36" height="38" viewBox="0 0 36 38" fill="none" xmlns="http://www.w3.org/2000/svg">
<path d="M17.9572 0.821716C8.98444 0.821716 9.54493 4.90109 9.54493 4.90109V9.12795H18.1188V10.3973H6.15425C6.15425 10.3973 0.413086 9.71523 0.413086 19.2092C0.413086 28.7032 5.42462 28.3661 5.42462 28.3661H8.41386V23.9601C8.37479 23.2683 8.47463 22.5756 8.70701 21.9264C8.93938 21.2772 9.29916 20.6857 9.76332 20.1899C10.2275 19.6941 10.7858 19.3048 11.4025 19.0471C12.0192 18.7893 12.6807 18.6687 13.3446 18.693H21.8402C22.4627 18.7218 23.0842 18.6176 23.6666 18.3866C24.249 18.1557 24.7799 17.8029 25.2268 17.3501C25.6737 16.8972 26.0272 16.3538 26.2653 15.7532C26.5035 15.1527 26.6215 14.5077 26.6119 13.8578V5.7412C26.6119 5.7412 27.3365 0.821716 17.9572 0.821716ZM13.236 3.66332C13.5425 3.66176 13.8424 3.75511 14.0979 3.93154C14.3534 4.10798 14.553 4.35956 14.6713 4.65441C14.7896 4.94925 14.8213 5.27409 14.7624 5.58777C14.7036 5.90145 14.5568 6.18984 14.3406 6.4164C14.1245 6.64297 13.8488 6.79751 13.5483 6.86044C13.2479 6.92337 12.9364 6.89187 12.6531 6.76992C12.3699 6.64797 12.1277 6.44106 11.9573 6.17541C11.7869 5.90975 11.696 5.59732 11.696 5.27769C11.6953 5.06616 11.7346 4.85657 11.8117 4.66091C11.8888 4.46524 12.0021 4.28735 12.1451 4.13741C12.2881 3.98747 12.4581 3.86842 12.6453 3.78707C12.8325 3.70572 13.0332 3.66367 13.236 3.66332ZM18.2173 37.6915C27.1901 37.6915 26.6296 33.6121 26.6296 33.6121V29.3853H18.0557V28.1159H30.0202C30.0202 28.1159 35.7589 28.798 35.7589 19.304C35.7589 9.81004 30.7474 10.1471 30.7474 10.1471H27.7606V14.5531C27.7997 15.2449 27.6999 15.9376 27.4675 16.5868C27.2351 17.236 26.8753 17.8275 26.4112 18.3233C25.947 18.8191 25.3887 19.2084 24.772 19.4661C24.1553 19.7239 23.4938 19.8445 22.8299 19.8202H14.3343C13.7118 19.7914 13.0903 19.8957 12.5079 20.1266C11.9255 20.3576 11.3946 20.7103 10.9477 21.1632C10.5008 21.616 10.1473 22.1594 9.90916 22.76C9.67097 23.3605 9.55304 24.0056 9.5626 24.6554V32.7852C9.5626 32.7852 8.83801 37.6915 18.2173 37.6915ZM22.9385 34.8499C22.632 34.8515 22.3321 34.7581 22.0766 34.5817C21.8211 34.4052 21.6215 34.1537 21.5032 33.8588C21.3849 33.564 21.3532 33.2391 21.4121 32.9254C21.4709 32.6118 21.6177 32.3234 21.8339 32.0968C22.05 31.8703 22.3257 31.7157 22.6262 31.6528C22.9266 31.5898 23.2381 31.6213 23.5214 31.7433C23.8046 31.8653 24.0468 32.0722 24.2172 32.3378C24.3876 32.6035 24.4785 32.9159 24.4785 33.2355C24.4792 33.4471 24.4399 33.6567 24.3628 33.8523C24.2857 34.048 24.1724 34.2259 24.0294 34.3758C23.8864 34.5257 23.7164 34.6448 23.5292 34.7262C23.342 34.8075 23.1413 34.8495 22.9385 34.8499Z" fill="#6D6D6D"/>
</svg>
