<svg width="17" height="16" viewBox="0 0 17 16" fill="none" xmlns="http://www.w3.org/2000/svg">
<rect x="0.5" width="16" height="16" fill="#121219"/>
<path d="M3.98242 9.42578L1.49805 8.31543V7.8877L3.98242 6.78027V7.35449L2.18945 8.05762L2.03418 8.10742L2.18945 8.16016L3.98242 8.85156V9.42578ZM7.9798 8.4502C7.9798 8.58887 7.96906 8.72266 7.94758 8.85156C7.92805 8.97852 7.89875 9.09766 7.85969 9.20898C7.80695 9.35547 7.73762 9.4873 7.65168 9.60449C7.5677 9.71973 7.46613 9.81543 7.34699 9.8916C7.26105 9.94434 7.16633 9.98535 7.06281 10.0146C6.96125 10.0439 6.8509 10.0586 6.73176 10.0586C6.59504 10.0586 6.47004 10.042 6.35676 10.0088C6.24543 9.97559 6.14484 9.92773 6.055 9.86523C6.01203 9.83398 5.97102 9.7998 5.93195 9.7627C5.89289 9.72559 5.85578 9.68457 5.82063 9.63965L5.79426 10H5.29621V5.5H5.8382V7.16992C5.88313 7.11328 5.93293 7.0625 5.98762 7.01758C6.0423 6.9707 6.1009 6.93066 6.1634 6.89746C6.24152 6.85645 6.32746 6.8252 6.42121 6.80371C6.51496 6.78223 6.61652 6.77148 6.7259 6.77148C6.86262 6.77148 6.98859 6.79004 7.10383 6.82715C7.21906 6.86426 7.32355 6.91602 7.4173 6.98242C7.50129 7.04492 7.57648 7.12109 7.64289 7.21094C7.7093 7.29883 7.76789 7.39746 7.81867 7.50684C7.87141 7.62988 7.91145 7.7666 7.93879 7.91699C7.96613 8.06543 7.9798 8.22266 7.9798 8.38867V8.4502ZM7.43781 8.38867C7.43781 8.28906 7.43098 8.19238 7.4173 8.09863C7.40559 8.00293 7.38703 7.91309 7.36164 7.8291C7.32648 7.72559 7.28059 7.63086 7.22395 7.54492C7.1673 7.45898 7.09797 7.3916 7.01594 7.34277C6.9593 7.30762 6.89582 7.28027 6.82551 7.26074C6.7552 7.24121 6.67707 7.23145 6.59113 7.23145C6.49738 7.23145 6.41145 7.24414 6.33332 7.26953C6.2552 7.29297 6.18586 7.32617 6.12531 7.36914C6.06281 7.41406 6.00715 7.4668 5.95832 7.52734C5.91145 7.58594 5.87141 7.65039 5.8382 7.7207V9.10645C5.87336 9.17676 5.91438 9.24219 5.96125 9.30273C6.01008 9.36133 6.06574 9.41309 6.12824 9.45801C6.19074 9.50293 6.26105 9.53809 6.33918 9.56348C6.4173 9.58691 6.50324 9.59863 6.59699 9.59863C6.68684 9.59863 6.76887 9.58789 6.84309 9.56641C6.9173 9.54297 6.98371 9.50977 7.0423 9.4668C7.12043 9.41211 7.18586 9.34277 7.23859 9.25879C7.29133 9.1748 7.33332 9.08105 7.36457 8.97754C7.38996 8.89941 7.40852 8.81543 7.42023 8.72559C7.43195 8.63574 7.43781 8.54395 7.43781 8.4502V8.38867ZM9.79164 10.3662H9.30531L11.0866 5.73438H11.57L9.79164 10.3662ZM12.872 9.42285V8.86035L14.7675 8.14551L14.9433 8.0957L14.7675 8.04004L12.872 7.33691V6.77734L15.4589 7.88477V8.3125L12.872 9.42285Z" fill="white"/>
</svg>
